<?xml version="1.0" encoding="UTF-8" standalone="no"?>
<!-- Created with Inkscape (http://www.inkscape.org/) -->

<svg
   xmlns:dc="http://purl.org/dc/elements/1.1/"
   xmlns:cc="http://creativecommons.org/ns#"
   xmlns:rdf="http://www.w3.org/1999/02/22-rdf-syntax-ns#"
   xmlns:svg="http://www.w3.org/2000/svg"
   xmlns="http://www.w3.org/2000/svg"
   xmlns:xlink="http://www.w3.org/1999/xlink"
   xmlns:sodipodi="http://sodipodi.sourceforge.net/DTD/sodipodi-0.dtd"
   xmlns:inkscape="http://www.inkscape.org/namespaces/inkscape"
   width="210mm"
   height="297mm"
   viewBox="0 0 210 297"
   version="1.1"
   id="svg8"
   inkscape:version="0.92.2 (5c3e80d, 2017-08-06)"
   sodipodi:docname="play.svg">
  <defs
     id="defs2" />
  <sodipodi:namedview
     id="base"
     pagecolor="#ffffff"
     bordercolor="#666666"
     borderopacity="1.0"
     inkscape:pageopacity="0.0"
     inkscape:pageshadow="2"
     inkscape:zoom="1.979899"
     inkscape:cx="125.97382"
     inkscape:cy="953.71615"
     inkscape:document-units="mm"
     inkscape:current-layer="layer1"
     showgrid="false"
     inkscape:window-width="1216"
     inkscape:window-height="744"
     inkscape:window-x="150"
     inkscape:window-y="0"
     inkscape:window-maximized="1" />
  <metadata
     id="metadata5">
    <rdf:RDF>
      <cc:Work
         rdf:about="">
        <dc:format>image/svg+xml</dc:format>
        <dc:type
           rdf:resource="http://purl.org/dc/dcmitype/StillImage" />
        <dc:title></dc:title>
      </cc:Work>
    </rdf:RDF>
  </metadata>
  <g
     inkscape:label="Layer 1"
     inkscape:groupmode="layer"
     id="layer1">
    <rect
       id="rect3699"
       width="16"
       height="16"
       x="9.8110123"
       y="26.281843"
       style="fill:#000000;stroke-width:0.1459291"
       ry="2.2678571" />
    <rect
       style="fill:#ffffff;stroke-width:0.28122756"
       id="rect3703"
       width="15"
       height="15"
       x="10.356548"
       y="26.752678"
       ry="3.2127976" />
    <path
       sodipodi:type="star"
       style="fill:#ffffff;stroke-width:0.26458332"
       id="path3715"
       sodipodi:sides="5"
       sodipodi:cx="10.205357"
       sodipodi:cy="54.339287"
       sodipodi:r1="11.156702"
       sodipodi:r2="2.5229131"
       sodipodi:arg1="0.67738644"
       sodipodi:arg2="3.0300566"
       inkscape:flatsided="false"
       inkscape:rounded="0"
       inkscape:randomized="0"
       d="M 18.898809,61.331846 7.69812,54.6201 6.2414618,64.768071 9.1635091,52.041539 -0.93791737,53.79207 12.068696,52.638388 7.2823293,43.572304 12.398811,55.585821 19.5421,48.232142 9.6976466,56.810586 Z"
       inkscape:transform-center-x="0.90326524"
       inkscape:transform-center-y="-0.16909985" />
    <path
       sodipodi:type="inkscape:offset"
       inkscape:radius="1.2264565"
       inkscape:original="M 13.876953 29.248047 C 13.930143 31.10459 13.981963 32.961815 14.035156 34.818359 C 14.443221 36.572415 13.051466 41.769241 15.939453 38.783203 C 18.30905 37.245892 20.684754 35.715871 23.058594 34.185547 C 19.994759 32.545176 16.934818 30.899719 13.876953 29.248047 z "
       xlink:href="#path3717"
       style="fill:#000000;stroke-width:0.11122343"
       id="path3723"
       inkscape:href="#path3717"
       d="m 13.871094,28.021484 a 1.2265792,1.2265792 0 0 0 -1.220703,1.261719 c 0.05317,1.855932 0.104992,3.713156 0.158203,5.570313 a 1.2265792,1.2265792 0 0 0 0.03125,0.242187 c 0.03687,0.158474 0.06039,0.785061 0.0332,1.453125 -0.02719,0.668065 -0.07987,1.403131 -0.04102,2.097656 0.01943,0.347263 0.05236,0.685663 0.185547,1.064454 0.133184,0.37879 0.452465,0.912975 1.072266,1.121093 0.619801,0.208118 1.177067,0.0016 1.576172,-0.232422 0.328791,-0.192831 0.630302,-0.478167 0.951172,-0.792968 2.364143,-1.533743 4.734511,-3.061378 7.105468,-4.589844 a 1.2265792,1.2265792 0 0 0 -0.08594,-2.113281 c -3.062524,-1.639669 -6.121206,-3.284597 -9.177735,-4.935547 a 1.2265792,1.2265792 0 0 0 -0.58789,-0.146485 z" />
    <path
       style="fill:#000000;stroke-width:0.11122343"
       d="m 14.03571,34.8183 c 0.408065,1.754056 -0.983399,6.950476 1.904588,3.964438 2.369597,-1.537311 4.744212,-3.06634 7.118052,-4.596664 -3.063835,-1.640371 -6.124353,-3.285733 -9.182218,-4.937405 0.05319,1.856543 0.106385,3.713087 0.159578,5.569631 z"
       id="path3717"
       inkscape:connector-curvature="0" />
    <path
       transform="matrix(0.91401519,0,0,0.92242332,1.3719192,2.7489695)"
       sodipodi:type="inkscape:offset"
       inkscape:radius="1.2264565"
       inkscape:original="M 13.876953 29.248047 C 13.930143 31.10459 13.981963 32.961815 14.035156 34.818359 C 14.443221 36.572415 13.051466 41.769241 15.939453 38.783203 C 18.30905 37.245892 20.684754 35.715871 23.058594 34.185547 C 19.994759 32.545176 16.934818 30.899719 13.876953 29.248047 z "
       xlink:href="#path3717"
       style="fill:#ffffff;stroke-width:0.11122343"
       id="path3723-3"
       inkscape:href="#path3717"
       d="m 13.871094,28.021484 a 1.2265792,1.2265792 0 0 0 -1.220703,1.261719 c 0.05317,1.855932 0.104992,3.713156 0.158203,5.570313 a 1.2265792,1.2265792 0 0 0 0.03125,0.242187 c 0.03687,0.158474 0.06039,0.785061 0.0332,1.453125 -0.02719,0.668065 -0.07987,1.403131 -0.04102,2.097656 0.01943,0.347263 0.05236,0.685663 0.185547,1.064454 0.133184,0.37879 0.452465,0.912975 1.072266,1.121093 0.619801,0.208118 1.177067,0.0016 1.576172,-0.232422 0.328791,-0.192831 0.630302,-0.478167 0.951172,-0.792968 2.364143,-1.533743 4.734511,-3.061378 7.105468,-4.589844 a 1.2265792,1.2265792 0 0 0 -0.08594,-2.113281 c -3.062524,-1.639669 -6.121206,-3.284597 -9.177735,-4.935547 a 1.2265792,1.2265792 0 0 0 -0.58789,-0.146485 z" />
  </g>
</svg>
